<svg width="420" height="270" viewBox="0 0 420 270" fill="none" xmlns="http://www.w3.org/2000/svg">
<rect x="47.5" y="55.5" width="9" height="9" fill="#293EFF" stroke="black"/>
<rect x="47.5" y="70.5" width="9" height="9" fill="#293EFF" stroke="black"/>
<rect x="47.5" y="85.5" width="9" height="9" fill="#293EFF" stroke="black"/>
<rect x="152.5" y="55.5" width="9" height="9" fill="white" stroke="black"/>
<rect x="167.5" y="145.5" width="9" height="9" fill="white" stroke="black"/>
<rect x="137.5" y="55.5" width="9" height="9" fill="white" stroke="black"/>
<rect x="47.5" y="160.5" width="9" height="9" fill="#293EFF" stroke="black"/>
<rect x="62.5" y="160.5" width="9" height="9" fill="#293EFF" stroke="black"/>
<rect x="152.5" y="160.5" width="9" height="9" fill="#5429FF" stroke="black"/>
<rect x="197.5" y="205.5" width="9" height="9" fill="#8729FF" stroke="black"/>
<rect x="107.5" y="160.5" width="9" height="9" fill="#5429FF" stroke="black"/>
<rect x="122.5" y="160.5" width="9" height="9" fill="#5429FF" stroke="black"/>
<rect x="137.5" y="160.5" width="9" height="9" fill="#5429FF" stroke="black"/>
<rect x="197.5" y="160.5" width="9" height="9" fill="#8729FF" stroke="black"/>
<rect x="212.5" y="160.5" width="9" height="9" fill="#8729FF" stroke="black"/>
<rect x="137.5" y="70.5" width="9" height="9" fill="white" stroke="black"/>
<rect x="182.5" y="40.5" width="9" height="9" fill="white" stroke="black"/>
<rect x="182.5" y="85.5" width="9" height="9" fill="white" stroke="black"/>
<rect x="212.5" y="190.5" width="9" height="9" fill="white" stroke="black"/>
<rect x="182.5" y="100.5" width="9" height="9" fill="white" stroke="black"/>
<rect x="197.5" y="40.5" width="9" height="9" fill="white" stroke="black"/>
<rect x="197.5" y="55.5" width="9" height="9" fill="white" stroke="black"/>
<rect x="47.5" y="40.5" width="9" height="9" fill="white" stroke="black"/>
<rect x="62.5" y="40.5" width="9" height="9" fill="white" stroke="black"/>
<rect x="62.5" y="55.5" width="9" height="9" fill="white" stroke="black"/>
<rect x="197.5" y="175.5" width="9" height="9" fill="white" stroke="black"/>
<rect x="212.5" y="175.5" width="9" height="9" fill="white" stroke="black"/>
<rect x="227.5" y="55.5" width="9" height="9" fill="white" stroke="black"/>
<rect x="227.5" y="100.5" width="9" height="9" fill="white" stroke="black"/>
<rect x="242.5" y="55.5" width="9" height="9" fill="white" stroke="black"/>
<rect x="242.5" y="70.5" width="9" height="9" fill="white" stroke="black"/>
<rect x="257.5" y="55.5" width="9" height="9" fill="white" stroke="black"/>
<rect x="257.5" y="115.5" width="9" height="9" fill="white" stroke="black"/>
<rect x="302.5" y="85.5" width="9" height="9" fill="white" stroke="black"/>
<rect x="317.5" y="70.5" width="9" height="9" fill="white" stroke="black"/>
<rect x="317.5" y="85.5" width="9" height="9" fill="white" stroke="black"/>
<rect x="332.5" y="85.5" width="9" height="9" fill="white" stroke="black"/>
<rect x="362.5" y="160.5" width="9" height="9" fill="white" stroke="black"/>
<rect x="47.5" y="100.5" width="9" height="9" fill="#293EFF" stroke="black"/>
<rect x="47.5" y="115.5" width="9" height="9" fill="#293EFF" stroke="black"/>
<rect x="47.5" y="130.5" width="9" height="9" fill="#293EFF" stroke="black"/>
<rect x="47.5" y="145.5" width="9" height="9" fill="#293EFF" stroke="black"/>
<rect x="77.5" y="55.5" width="9" height="9" fill="#293EFF" stroke="black"/>
<rect x="77.5" y="70.5" width="9" height="9" fill="#293EFF" stroke="black"/>
<rect x="77.5" y="85.5" width="9" height="9" fill="#293EFF" stroke="black"/>
<rect x="77.5" y="160.5" width="9" height="9" fill="#293EFF" stroke="black"/>
<rect x="92.5" y="160.5" width="9" height="9" fill="#293EFF" stroke="black"/>
<rect x="77.5" y="100.5" width="9" height="9" fill="#293EFF" stroke="black"/>
<rect x="77.5" y="115.5" width="9" height="9" fill="#293EFF" stroke="black"/>
<rect x="77.5" y="130.5" width="9" height="9" fill="#293EFF" stroke="black"/>
<rect x="77.5" y="145.5" width="9" height="9" fill="#293EFF" stroke="black"/>
<rect x="152.5" y="100.5" width="9" height="9" fill="white" stroke="black"/>
<rect x="152.5" y="115.5" width="9" height="9" fill="#5429FF" stroke="black"/>
<rect x="152.5" y="130.5" width="9" height="9" fill="#5429FF" stroke="black"/>
<rect x="152.5" y="145.5" width="9" height="9" fill="#5429FF" stroke="black"/>
<rect x="227.5" y="220.5" width="9" height="9" fill="#8729FF" stroke="black"/>
<rect x="227.5" y="175.5" width="9" height="9" fill="#8729FF" stroke="black"/>
<rect x="227.5" y="190.5" width="9" height="9" fill="#8729FF" stroke="black"/>
<rect x="227.5" y="205.5" width="9" height="9" fill="#8729FF" stroke="black"/>
<rect x="227.5" y="160.5" width="9" height="9" fill="#8729FF" stroke="black"/>
<rect x="227.5" y="115.5" width="9" height="9" fill="#8729FF" stroke="black"/>
<rect x="227.5" y="130.5" width="9" height="9" fill="#8729FF" stroke="black"/>
<rect x="227.5" y="145.5" width="9" height="9" fill="#8729FF" stroke="black"/>
<rect x="182.5" y="160.5" width="9" height="9" fill="#8729FF" stroke="black"/>
<rect x="167.5" y="160.5" width="9" height="9" fill="#5429FF" stroke="black"/>
<rect x="182.5" y="115.5" width="9" height="9" fill="#8729FF" stroke="black"/>
<rect x="182.5" y="130.5" width="9" height="9" fill="#8729FF" stroke="black"/>
<rect x="182.5" y="145.5" width="9" height="9" fill="#8729FF" stroke="black"/>
<rect x="107.5" y="100.5" width="9" height="9" fill="white" stroke="black"/>
<rect x="107.5" y="115.5" width="9" height="9" fill="#5429FF" stroke="black"/>
<rect x="107.5" y="130.5" width="9" height="9" fill="#5429FF" stroke="black"/>
<rect x="107.5" y="145.5" width="9" height="9" fill="#5429FF" stroke="black"/>
<rect x="122.5" y="100.5" width="9" height="9" fill="white" stroke="black"/>
<rect x="122.5" y="115.5" width="9" height="9" fill="#5429FF" stroke="black"/>
<rect x="137.5" y="100.5" width="9" height="9" fill="white" stroke="black"/>
<rect x="137.5" y="115.5" width="9" height="9" fill="#5429FF" stroke="black"/>
<rect x="288.5" y="130.5" width="9" height="9" fill="#C729FF" stroke="black"/>
<rect x="243.5" y="130.5" width="9" height="9" fill="#C729FF" stroke="black"/>
<rect x="258.5" y="130.5" width="9" height="9" fill="#C729FF" stroke="black"/>
<rect x="273.5" y="130.5" width="9" height="9" fill="#C729FF" stroke="black"/>
<rect x="287.5" y="160.5" width="9" height="9" fill="#C729FF" stroke="black"/>
<rect x="242.5" y="115.5" width="9" height="9" fill="#C729FF" stroke="black"/>
<rect x="287.5" y="145.5" width="9" height="9" fill="#C729FF" stroke="black"/>
<rect x="257.5" y="160.5" width="9" height="9" fill="#C729FF" stroke="black"/>
<rect x="272.5" y="160.5" width="9" height="9" fill="#C729FF" stroke="black"/>
<rect x="243.5" y="100.5" width="9" height="9" fill="#C729FF" stroke="black"/>
<rect x="258.5" y="100.5" width="9" height="9" fill="#C729FF" stroke="black"/>
<rect x="273.5" y="100.5" width="9" height="9" fill="#C729FF" stroke="black"/>
<rect x="302.5" y="100.5" width="9" height="9" fill="#FB29FF" stroke="black"/>
<rect x="317.5" y="100.5" width="9" height="9" fill="#FB29FF" stroke="black"/>
<rect x="332.5" y="100.5" width="9" height="9" fill="#FB29FF" stroke="black"/>
<rect x="347.5" y="160.5" width="9" height="9" fill="#FB29FF" stroke="black"/>
<rect x="302.5" y="145.5" width="9" height="9" fill="#FB29FF" stroke="black"/>
<rect x="302.5" y="115.5" width="9" height="9" fill="#FB29FF" stroke="black"/>
<rect x="302.5" y="160.5" width="9" height="9" fill="#FB29FF" stroke="black"/>
<rect x="317.5" y="160.5" width="9" height="9" fill="#FB29FF" stroke="black"/>
<rect x="332.5" y="160.5" width="9" height="9" fill="#FB29FF" stroke="black"/>
<rect x="347.5" y="130.5" width="9" height="9" fill="#FB29FF" stroke="black"/>
<rect x="347.5" y="115.5" width="9" height="9" fill="#FB29FF" stroke="black"/>
<rect x="302.5" y="130.5" width="9" height="9" fill="#FB29FF" stroke="black"/>
<rect x="317.5" y="130.5" width="9" height="9" fill="#FB29FF" stroke="black"/>
<rect x="332.5" y="130.5" width="9" height="9" fill="#FB29FF" stroke="black"/>
<rect x="197.5" y="220.5" width="9" height="9" fill="#8729FF" stroke="black"/>
<rect x="212.5" y="220.5" width="9" height="9" fill="#8729FF" stroke="black"/>
</svg>
